<svg width="611.801" height="77.301" viewBox="0 0 611.801 77.301" xmlns="http://www.w3.org/2000/svg"><g id="svgGroup" stroke-linecap="round" fill-rule="evenodd" font-size="9pt" stroke="#ffffff" stroke-width="0.25mm" fill="#ffffff" style="stroke:#ffffff;stroke-width:0.25mm;fill:#ffffff"><path d="M 205.9 40.801 L 192.7 26.701 L 192.7 51.801 A 5.461 5.461 0 0 1 191.053 55.747 A 7.054 7.054 0 0 1 191 55.801 Q 189.3 57.501 187 57.501 Q 184.7 57.501 183.05 55.801 Q 181.4 54.101 181.4 51.801 L 181.4 2.101 A 2.228 2.228 0 0 1 181.854 1.325 Q 182.268 0.877 182.936 0.75 A 3.03 3.03 0 0 1 183.5 0.701 A 2.357 2.357 0 0 1 184.174 0.793 A 1.921 1.921 0 0 1 184.85 1.151 Q 185.4 1.601 185.9 2.101 L 206.9 25.401 Q 207.4 25.901 207.9 26.201 Q 208.314 26.449 208.591 26.492 A 0.717 0.717 0 0 0 208.7 26.501 Q 208.954 26.501 209.351 26.286 A 3.862 3.862 0 0 0 209.5 26.201 A 4.59 4.59 0 0 0 210.031 25.825 A 6.146 6.146 0 0 0 210.5 25.401 L 231.5 2.101 Q 232 1.601 232.55 1.151 A 1.979 1.979 0 0 1 233.597 0.718 A 2.606 2.606 0 0 1 233.9 0.701 Q 235.428 0.701 235.953 1.978 A 2.811 2.811 0 0 1 236 2.101 L 236 51.801 Q 236 54.101 234.35 55.801 A 5.585 5.585 0 0 1 232.445 57.114 A 5.371 5.371 0 0 1 230.4 57.501 A 5.461 5.461 0 0 1 226.453 55.853 A 7.054 7.054 0 0 1 226.4 55.801 Q 224.7 54.101 224.7 51.801 L 224.7 26.701 L 211.5 40.801 A 4.764 4.764 0 0 1 210.66 41.583 A 3.137 3.137 0 0 1 208.8 42.201 Q 207.1 42.201 205.9 40.801 Z M 156.2 58.801 L 156.2 55.201 Q 153.4 57.101 151 57.551 A 25.629 25.629 0 0 1 146.624 57.998 A 23.62 23.62 0 0 1 146.3 58.001 A 20.602 20.602 0 0 1 142.836 57.723 A 14.939 14.939 0 0 1 139 56.551 A 14.404 14.404 0 0 1 135.04 53.855 A 13.403 13.403 0 0 1 133.9 52.601 Q 131.9 50.101 130.95 46.901 Q 130 43.701 130 40.101 L 130 23.201 Q 130 20.901 131.65 19.201 A 5.585 5.585 0 0 1 133.556 17.887 A 5.371 5.371 0 0 1 135.6 17.501 A 5.461 5.461 0 0 1 139.547 19.148 A 7.054 7.054 0 0 1 139.6 19.201 Q 141.3 20.901 141.3 23.201 L 141.3 39.001 Q 141.3 40.801 141.5 42.451 A 7.385 7.385 0 0 0 141.932 44.225 A 6.257 6.257 0 0 0 142.5 45.351 A 5.122 5.122 0 0 0 144.22 46.993 A 6.428 6.428 0 0 0 144.8 47.301 A 6.196 6.196 0 0 0 145.973 47.699 Q 147.228 48.001 149 48.001 A 8.556 8.556 0 0 0 151.067 47.767 A 5.342 5.342 0 0 0 154.45 45.351 A 10.764 10.764 0 0 0 155.905 41.421 A 14.439 14.439 0 0 0 156.1 39.001 L 156.1 23.201 Q 156.1 20.901 157.75 19.201 A 5.585 5.585 0 0 1 159.656 17.887 A 5.371 5.371 0 0 1 161.7 17.501 A 5.461 5.461 0 0 1 165.647 19.148 A 7.054 7.054 0 0 1 165.7 19.201 Q 167.4 20.901 167.4 23.201 L 167.4 57.201 Q 167.4 62.601 165.7 66.401 A 19.443 19.443 0 0 1 163.527 70.138 A 15.953 15.953 0 0 1 161.25 72.601 Q 158.5 75.001 155.1 76.151 A 21.163 21.163 0 0 1 148.539 77.299 A 20.108 20.108 0 0 1 148.3 77.301 A 56.787 56.787 0 0 1 144.808 77.199 Q 142.625 77.064 140.8 76.751 Q 137.6 76.201 134.9 74.701 A 4.986 4.986 0 0 1 133.302 73.249 A 4.881 4.881 0 0 1 133.05 72.851 Q 132.4 71.701 132.4 70.401 A 4.937 4.937 0 0 1 132.907 68.256 A 6.981 6.981 0 0 1 133.65 67.051 A 5.002 5.002 0 0 1 134.514 66.15 A 3.271 3.271 0 0 1 136.6 65.401 Q 138.1 65.401 140.65 66.351 A 13.1 13.1 0 0 0 142.781 66.929 Q 144.738 67.301 147.3 67.301 A 19.876 19.876 0 0 0 148.996 67.233 Q 149.775 67.166 150.439 67.033 A 8.357 8.357 0 0 0 151.65 66.701 Q 153.3 66.101 154.3 64.951 Q 155.3 63.801 155.7 62.251 A 15.635 15.635 0 0 0 156.055 60.396 A 20.291 20.291 0 0 0 156.2 58.801 Z M 505.018 5.943 A 5.922 5.922 0 0 0 503.8 4.901 Q 500.3 2.601 496.15 1.301 Q 492 0.001 487.5 0.001 Q 481.5 0.001 476.2 2.301 Q 470.9 4.601 467 8.501 Q 463.1 12.401 460.8 17.701 Q 458.5 23.001 458.5 29.001 Q 458.5 35.001 460.8 40.301 Q 463.1 45.601 467 49.501 Q 470.9 53.401 476.2 55.701 Q 481.5 58.001 487.5 58.001 Q 492.8 58.001 497.65 56.101 Q 502.5 54.201 506.3 51.001 Q 507.4 50.301 508.1 49.201 Q 508.8 48.101 508.8 46.701 A 6.039 6.039 0 0 0 508.8 46.635 A 4.819 4.819 0 0 0 507.35 43.151 A 4.933 4.933 0 0 0 505.943 42.153 A 5.009 5.009 0 0 0 503.8 41.701 Q 502 41.701 500.7 42.701 Q 498.1 45.101 494.7 46.551 A 17.816 17.816 0 0 1 494.273 46.726 A 18.489 18.489 0 0 1 487.4 48.001 A 20.054 20.054 0 0 1 485.961 47.95 A 16.874 16.874 0 0 1 480.25 46.551 Q 477 45.101 474.7 42.551 A 17.958 17.958 0 0 1 474.141 41.9 A 19.01 19.01 0 0 1 471.1 36.601 A 19.089 19.089 0 0 1 470.594 35.089 A 20.723 20.723 0 0 1 469.8 29.301 Q 469.8 25.401 471.1 22.001 Q 472.4 18.601 474.7 16.051 Q 477 13.501 480.25 12.001 A 15.761 15.761 0 0 1 482.561 11.147 A 17.669 17.669 0 0 1 487.4 10.501 Q 490.7 10.501 493.75 11.601 Q 496.8 12.701 499.3 14.501 A 6.24 6.24 0 0 0 499.316 14.507 A 5.693 5.693 0 0 0 500.3 14.801 Q 500.8 14.901 501.3 14.901 A 5.052 5.052 0 0 0 503.333 14.488 A 5.601 5.601 0 0 0 505 13.351 A 6.191 6.191 0 0 0 505.099 13.253 A 5.014 5.014 0 0 0 506.6 9.601 Q 506.6 8.201 505.75 6.901 A 7.82 7.82 0 0 0 505.018 5.943 Z M 359.9 54.401 L 346.9 39.501 L 346.9 51.801 A 5.461 5.461 0 0 1 345.253 55.747 A 7.054 7.054 0 0 1 345.2 55.801 Q 343.5 57.501 341.2 57.501 Q 338.9 57.501 337.25 55.801 Q 335.6 54.101 335.6 51.801 L 335.6 6.401 Q 335.6 4.101 337.25 2.401 A 5.585 5.585 0 0 1 339.156 1.087 A 5.371 5.371 0 0 1 341.2 0.701 A 5.461 5.461 0 0 1 345.147 2.348 A 7.054 7.054 0 0 1 345.2 2.401 Q 346.9 4.101 346.9 6.401 L 346.9 34.701 L 359.9 20.501 Q 360.9 19.401 362.1 18.451 Q 363.3 17.501 364.8 17.501 A 5.013 5.013 0 0 1 368.071 18.714 A 6.803 6.803 0 0 1 368.55 19.151 A 5.75 5.75 0 0 1 369.748 20.848 A 5.168 5.168 0 0 1 370.2 23.001 A 5.402 5.402 0 0 1 370.039 24.35 A 4.315 4.315 0 0 1 369.5 25.601 L 359.2 36.701 L 369.7 49.201 Q 370.5 50.501 370.5 51.901 A 5.25 5.25 0 0 1 369.152 55.423 A 7.024 7.024 0 0 1 368.8 55.801 Q 367.1 57.501 364.9 57.501 Q 363.4 57.501 362.15 56.551 Q 360.9 55.601 359.9 54.401 Z M 90.9 36.301 L 90.9 51.801 A 5.461 5.461 0 0 1 89.253 55.747 A 7.054 7.054 0 0 1 89.2 55.801 Q 87.5 57.501 85.2 57.501 Q 82.9 57.501 81.25 55.801 Q 79.6 54.101 79.6 51.801 L 79.6 21.901 A 4.225 4.225 0 0 1 80.86 18.841 A 5.271 5.271 0 0 1 80.9 18.801 A 4.379 4.379 0 0 1 82.521 17.749 A 4.338 4.338 0 0 1 84 17.501 A 4.06 4.06 0 0 1 86.972 18.721 A 4.942 4.942 0 0 1 87.05 18.801 Q 88.3 20.101 88.3 21.901 Q 91.8 18.701 94.8 17.851 A 22.015 22.015 0 0 1 99.609 17.03 A 20.007 20.007 0 0 1 100.7 17.001 A 20.602 20.602 0 0 1 104.165 17.278 A 14.939 14.939 0 0 1 108 18.451 A 14.404 14.404 0 0 1 111.96 21.147 A 13.403 13.403 0 0 1 113.1 22.401 Q 115.1 24.901 116.05 28.101 Q 117 31.301 117 34.901 L 117 51.801 A 5.461 5.461 0 0 1 115.353 55.747 A 7.054 7.054 0 0 1 115.3 55.801 Q 113.6 57.501 111.3 57.501 Q 109 57.501 107.35 55.801 Q 105.7 54.101 105.7 51.801 L 105.7 36.301 Q 105.7 34.501 105.5 32.851 A 7.385 7.385 0 0 0 105.068 31.076 A 6.257 6.257 0 0 0 104.5 29.951 A 5.122 5.122 0 0 0 102.781 28.308 A 6.428 6.428 0 0 0 102.2 28.001 A 6.196 6.196 0 0 0 101.027 27.602 Q 99.772 27.301 98 27.301 A 8.556 8.556 0 0 0 95.933 27.534 A 5.342 5.342 0 0 0 92.55 29.951 A 10.764 10.764 0 0 0 91.095 33.88 A 14.439 14.439 0 0 0 90.9 36.301 Z M 16.5 11.001 L 5 11.001 A 4.655 4.655 0 0 1 1.738 9.683 A 6.216 6.216 0 0 1 1.5 9.451 A 5.496 5.496 0 0 1 0.43 7.912 A 4.789 4.789 0 0 1 0 5.901 Q 0 3.801 1.5 2.251 A 5.288 5.288 0 0 1 2.935 1.177 A 4.56 4.56 0 0 1 5 0.701 L 39.3 0.701 A 4.655 4.655 0 0 1 42.563 2.018 A 6.216 6.216 0 0 1 42.8 2.251 Q 44.3 3.801 44.3 5.901 A 4.893 4.893 0 0 1 43.025 9.206 A 6.439 6.439 0 0 1 42.8 9.451 A 5.288 5.288 0 0 1 41.365 10.524 A 4.56 4.56 0 0 1 39.3 11.001 L 27.8 11.001 L 27.8 51.801 A 5.461 5.461 0 0 1 26.153 55.747 A 7.054 7.054 0 0 1 26.1 55.801 Q 24.4 57.501 22.1 57.501 Q 19.8 57.501 18.15 55.801 Q 16.5 54.101 16.5 51.801 L 16.5 11.001 Z M 582.1 54.701 L 582.1 68.901 A 5.461 5.461 0 0 1 580.453 72.847 A 7.054 7.054 0 0 1 580.4 72.901 Q 578.7 74.601 576.4 74.601 Q 574.1 74.601 572.45 72.901 Q 570.8 71.201 570.8 68.901 L 570.8 21.901 A 4.225 4.225 0 0 1 572.06 18.841 A 5.271 5.271 0 0 1 572.1 18.801 A 4.379 4.379 0 0 1 573.721 17.749 A 4.338 4.338 0 0 1 575.2 17.501 Q 577 17.501 578.25 18.851 A 4.641 4.641 0 0 1 579.445 21.448 A 6.334 6.334 0 0 1 579.5 22.301 A 19.154 19.154 0 0 1 582.377 19.912 A 14.175 14.175 0 0 1 586.3 18.051 A 29.223 29.223 0 0 1 589.31 17.334 Q 590.818 17.063 592.18 17.012 A 16.649 16.649 0 0 1 592.8 17.001 A 18.429 18.429 0 0 1 598.84 17.977 A 17.271 17.271 0 0 1 600.4 18.601 Q 603.9 20.201 606.45 22.951 A 19.518 19.518 0 0 1 610.356 29.285 A 22.104 22.104 0 0 1 610.4 29.401 Q 611.8 33.101 611.8 37.301 Q 611.8 41.501 610.4 45.251 A 21.926 21.926 0 0 1 607.29 50.938 A 20.455 20.455 0 0 1 606.55 51.851 Q 604.1 54.701 600.75 56.351 A 16.216 16.216 0 0 1 594.145 57.986 A 18.966 18.966 0 0 1 593.4 58.001 Q 590.9 58.001 587.65 57.201 Q 584.4 56.401 582.1 54.701 Z M 410.3 40.901 L 387.4 40.901 A 9.707 9.707 0 0 0 387.524 42.501 Q 387.672 43.386 387.997 44.102 A 4.961 4.961 0 0 0 388.45 44.901 A 7.906 7.906 0 0 0 390.431 46.894 A 7.486 7.486 0 0 0 391 47.251 A 9.233 9.233 0 0 0 393.603 48.258 A 8.629 8.629 0 0 0 394.1 48.351 A 25.616 25.616 0 0 0 395.208 48.5 Q 396.104 48.601 396.8 48.601 A 20.449 20.449 0 0 0 398.286 48.543 Q 399.297 48.469 400.45 48.301 A 13.904 13.904 0 0 0 403.104 47.652 A 12.097 12.097 0 0 0 404.2 47.201 Q 404.7 46.801 405.5 46.551 Q 406.3 46.301 407.1 46.301 A 4.424 4.424 0 0 1 410.308 47.609 A 5.392 5.392 0 0 1 410.35 47.651 A 4.425 4.425 0 0 1 411.7 50.841 A 5.312 5.312 0 0 1 411.7 50.901 Q 411.7 52.201 411 53.251 Q 410.3 54.301 409.2 54.901 Q 406.6 56.801 403.35 57.401 Q 400.1 58.001 396.9 58.001 Q 392.6 58.001 388.8 56.851 Q 385 55.701 382.15 53.201 A 17.092 17.092 0 0 1 378.224 48.112 A 20.357 20.357 0 0 1 377.65 46.901 Q 376 43.101 376 37.801 A 28.677 28.677 0 0 1 376.725 31.28 A 26.104 26.104 0 0 1 377.1 29.851 A 18.548 18.548 0 0 1 379.982 23.977 A 17.686 17.686 0 0 1 380.55 23.251 A 16.487 16.487 0 0 1 385.441 19.26 A 19.598 19.598 0 0 1 386.55 18.701 A 17.355 17.355 0 0 1 390.7 17.399 Q 392.564 17.05 394.688 17.007 A 29.822 29.822 0 0 1 395.3 17.001 Q 399.4 17.001 402.9 18.301 Q 406.4 19.601 409 22.051 A 16.667 16.667 0 0 1 412.391 26.611 A 20.002 20.002 0 0 1 413.1 28.151 A 20.793 20.793 0 0 1 414.388 32.855 A 27.339 27.339 0 0 1 414.7 36.501 A 4.225 4.225 0 0 1 413.441 39.56 A 5.271 5.271 0 0 1 413.4 39.601 A 4.379 4.379 0 0 1 411.78 40.652 A 4.338 4.338 0 0 1 410.3 40.901 Z M 445.4 58.001 L 442.3 58.001 Q 439.1 58.001 436.55 57.201 Q 434 56.401 432.25 54.451 Q 430.664 52.683 429.776 49.849 A 18.69 18.69 0 0 1 429.6 49.251 Q 428.7 46.001 428.7 41.001 L 428.7 27.301 L 425.8 27.301 A 4.776 4.776 0 0 1 422.601 26.076 A 6.415 6.415 0 0 1 422.25 25.751 A 5.553 5.553 0 0 1 421.191 24.309 A 4.655 4.655 0 0 1 420.7 22.201 A 5.133 5.133 0 0 1 421.164 20.004 A 5.068 5.068 0 0 1 422.25 18.501 A 5.496 5.496 0 0 1 423.788 17.43 A 4.789 4.789 0 0 1 425.8 17.001 L 428.7 17.001 L 428.7 6.401 Q 428.7 4.101 430.35 2.401 A 5.585 5.585 0 0 1 432.256 1.087 A 5.371 5.371 0 0 1 434.3 0.701 A 5.461 5.461 0 0 1 438.247 2.348 A 7.054 7.054 0 0 1 438.3 2.401 Q 440 4.101 440 6.401 L 440 17.001 L 444.7 17.001 A 4.893 4.893 0 0 1 448.005 18.275 A 6.439 6.439 0 0 1 448.25 18.501 A 4.928 4.928 0 0 1 449.799 22.064 A 6.154 6.154 0 0 1 449.8 22.201 A 4.776 4.776 0 0 1 448.576 25.4 A 6.415 6.415 0 0 1 448.25 25.751 A 5.553 5.553 0 0 1 446.809 26.81 A 4.655 4.655 0 0 1 444.7 27.301 L 440 27.301 L 440 38.801 A 144.319 144.319 0 0 0 440.006 40.179 Q 440.025 42.138 440.1 43.451 Q 440.166 44.599 440.361 45.446 A 6.117 6.117 0 0 0 440.6 46.251 A 3.507 3.507 0 0 0 440.892 46.851 Q 441.098 47.182 441.359 47.401 A 1.786 1.786 0 0 0 441.75 47.651 Q 442.278 47.897 443.077 47.97 A 7.968 7.968 0 0 0 443.8 48.001 L 445.4 48.001 Q 447.4 48.001 448.9 49.451 A 4.734 4.734 0 0 1 450.399 52.87 A 5.797 5.797 0 0 1 450.4 53.001 Q 450.4 55.001 448.9 56.501 A 5.227 5.227 0 0 1 447.357 57.59 A 4.698 4.698 0 0 1 445.4 58.001 Z M 278.8 53.101 L 278.6 51.801 Q 277.8 53.401 276.2 54.601 Q 274.6 55.801 272.65 56.551 Q 270.7 57.301 268.65 57.651 Q 266.6 58.001 264.9 58.001 A 16.903 16.903 0 0 1 259.486 57.148 A 15.643 15.643 0 0 1 257.55 56.351 Q 254.2 54.701 251.75 51.851 A 21.475 21.475 0 0 1 248.08 45.718 A 24.409 24.409 0 0 1 247.9 45.251 Q 246.5 41.501 246.5 37.301 A 22.367 22.367 0 0 1 247.57 30.341 A 21.051 21.051 0 0 1 247.9 29.401 A 19.609 19.609 0 0 1 251.614 23.21 A 18.863 18.863 0 0 1 251.85 22.951 Q 254.4 20.201 257.9 18.601 A 17.93 17.93 0 0 1 264.99 17.007 A 20.73 20.73 0 0 1 265.5 17.001 Q 266.188 17.001 267.598 17.145 A 58.378 58.378 0 0 1 267.65 17.151 Q 269.1 17.301 270.9 17.951 Q 272.586 18.559 274.491 19.694 A 29.552 29.552 0 0 1 274.75 19.851 A 15.077 15.077 0 0 1 277.304 21.829 A 18.83 18.83 0 0 1 278.6 23.201 L 278.8 21.901 Q 278.8 20.101 280.05 18.801 A 4.061 4.061 0 0 1 282.988 17.502 A 4.914 4.914 0 0 1 283.1 17.501 A 4.225 4.225 0 0 1 286.159 18.76 A 5.271 5.271 0 0 1 286.2 18.801 A 4.379 4.379 0 0 1 287.251 20.421 A 4.338 4.338 0 0 1 287.5 21.901 L 287.5 53.101 A 4.225 4.225 0 0 1 286.241 56.16 A 5.271 5.271 0 0 1 286.2 56.201 A 4.379 4.379 0 0 1 284.58 57.252 A 4.338 4.338 0 0 1 283.1 57.501 A 4.06 4.06 0 0 1 280.129 56.281 A 4.942 4.942 0 0 1 280.05 56.201 Q 278.8 54.901 278.8 53.101 Z M 548.1 53.101 L 547.9 51.801 Q 547.1 53.401 545.5 54.601 Q 543.9 55.801 541.95 56.551 Q 540 57.301 537.95 57.651 Q 535.9 58.001 534.2 58.001 A 16.903 16.903 0 0 1 528.786 57.148 A 15.643 15.643 0 0 1 526.85 56.351 Q 523.5 54.701 521.05 51.851 A 21.475 21.475 0 0 1 517.38 45.718 A 24.409 24.409 0 0 1 517.2 45.251 Q 515.8 41.501 515.8 37.301 A 22.367 22.367 0 0 1 516.87 30.341 A 21.051 21.051 0 0 1 517.2 29.401 A 19.609 19.609 0 0 1 520.914 23.21 A 18.863 18.863 0 0 1 521.15 22.951 Q 523.7 20.201 527.2 18.601 A 17.93 17.93 0 0 1 534.29 17.007 A 20.73 20.73 0 0 1 534.8 17.001 Q 535.488 17.001 536.898 17.145 A 58.378 58.378 0 0 1 536.95 17.151 Q 538.4 17.301 540.2 17.951 Q 541.886 18.559 543.791 19.694 A 29.552 29.552 0 0 1 544.05 19.851 A 15.077 15.077 0 0 1 546.604 21.829 A 18.83 18.83 0 0 1 547.9 23.201 L 548.1 21.901 Q 548.1 20.101 549.35 18.801 A 4.061 4.061 0 0 1 552.288 17.502 A 4.914 4.914 0 0 1 552.4 17.501 A 4.225 4.225 0 0 1 555.459 18.76 A 5.271 5.271 0 0 1 555.5 18.801 A 4.379 4.379 0 0 1 556.551 20.421 A 4.338 4.338 0 0 1 556.8 21.901 L 556.8 53.101 A 4.225 4.225 0 0 1 555.541 56.16 A 5.271 5.271 0 0 1 555.5 56.201 A 4.379 4.379 0 0 1 553.88 57.252 A 4.338 4.338 0 0 1 552.4 57.501 A 4.06 4.06 0 0 1 549.429 56.281 A 4.942 4.942 0 0 1 549.35 56.201 Q 548.1 54.901 548.1 53.101 Z M 322.5 27.301 L 321.3 27.301 Q 319.403 27.441 318.024 27.853 A 8.429 8.429 0 0 0 316.95 28.251 A 7.69 7.69 0 0 0 315.65 28.993 A 5.681 5.681 0 0 0 314.4 30.201 A 6.978 6.978 0 0 0 313.28 32.486 A 8.28 8.28 0 0 0 313.15 33.001 Q 312.8 34.601 312.8 36.301 L 312.8 51.801 A 5.461 5.461 0 0 1 311.153 55.747 A 7.054 7.054 0 0 1 311.1 55.801 Q 309.4 57.501 307.1 57.501 Q 304.8 57.501 303.15 55.801 Q 301.5 54.101 301.5 51.801 L 301.5 21.901 A 4.225 4.225 0 0 1 302.76 18.841 A 5.271 5.271 0 0 1 302.8 18.801 A 4.379 4.379 0 0 1 304.421 17.749 A 4.338 4.338 0 0 1 305.9 17.501 A 4.06 4.06 0 0 1 308.872 18.721 A 4.942 4.942 0 0 1 308.95 18.801 Q 310.2 20.101 310.2 21.901 A 27.338 27.338 0 0 1 312.241 20.213 Q 313.287 19.435 314.267 18.898 A 11.257 11.257 0 0 1 316.05 18.101 Q 318.7 17.201 321.3 17.001 L 322.4 17.001 A 5.017 5.017 0 0 1 325.62 18.17 A 6.643 6.643 0 0 1 326 18.501 A 4.852 4.852 0 0 1 327.597 21.996 A 5.919 5.919 0 0 1 327.6 22.201 A 4.776 4.776 0 0 1 326.376 25.4 A 6.415 6.415 0 0 1 326.05 25.751 Q 325.353 26.448 324.565 26.831 A 4.656 4.656 0 0 1 322.5 27.301 Z M 54.3 51.801 L 54.3 23.201 Q 54.3 20.901 55.95 19.201 A 5.585 5.585 0 0 1 57.856 17.887 A 5.371 5.371 0 0 1 59.9 17.501 A 5.461 5.461 0 0 1 63.847 19.148 A 7.054 7.054 0 0 1 63.9 19.201 Q 65.6 20.901 65.6 23.201 L 65.6 51.801 A 5.461 5.461 0 0 1 63.953 55.747 A 7.054 7.054 0 0 1 63.9 55.801 Q 62.2 57.501 59.9 57.501 Q 57.6 57.501 55.95 55.801 Q 54.3 54.101 54.3 51.801 Z M 591.5 48.001 A 7.99 7.99 0 0 0 597.481 45.414 A 10.624 10.624 0 0 0 597.9 44.951 A 10.8 10.8 0 0 0 600.409 39.037 A 14.283 14.283 0 0 0 600.5 37.401 A 12.694 12.694 0 0 0 600.103 34.144 A 9.364 9.364 0 0 0 597.9 30.101 A 8.574 8.574 0 0 0 594.493 27.799 A 8.801 8.801 0 0 0 591.5 27.301 A 9.105 9.105 0 0 0 584.922 30.029 A 11.634 11.634 0 0 0 584.9 30.051 Q 582.1 32.801 582.1 37.401 A 12.366 12.366 0 0 0 582.423 40.269 A 10.81 10.81 0 0 0 582.85 41.651 A 10.758 10.758 0 0 0 584.124 44.047 A 9.53 9.53 0 0 0 584.9 45.001 Q 586.2 46.401 587.9 47.201 Q 589.6 48.001 591.5 48.001 Z M 266.8 48.001 Q 268.7 48.001 270.4 47.201 Q 272.1 46.401 273.4 45.001 A 10.015 10.015 0 0 0 275.15 42.362 A 11.788 11.788 0 0 0 275.45 41.651 A 11.361 11.361 0 0 0 276.164 38.39 A 13.444 13.444 0 0 0 276.2 37.401 A 12.26 12.26 0 0 0 275.806 34.211 A 8.988 8.988 0 0 0 273.4 30.051 A 9.546 9.546 0 0 0 270.091 27.885 A 9.194 9.194 0 0 0 266.8 27.301 A 8.357 8.357 0 0 0 260.647 29.844 A 10.255 10.255 0 0 0 260.4 30.101 A 9.561 9.561 0 0 0 257.995 35.067 A 13.442 13.442 0 0 0 257.8 37.401 A 12.86 12.86 0 0 0 258.325 41.151 A 10.491 10.491 0 0 0 260.4 44.951 A 8.995 8.995 0 0 0 262.881 47.022 A 7.956 7.956 0 0 0 266.8 48.001 Z M 536.1 48.001 Q 538 48.001 539.7 47.201 Q 541.4 46.401 542.7 45.001 A 10.015 10.015 0 0 0 544.45 42.362 A 11.788 11.788 0 0 0 544.75 41.651 A 11.361 11.361 0 0 0 545.464 38.39 A 13.444 13.444 0 0 0 545.5 37.401 A 12.26 12.26 0 0 0 545.106 34.211 A 8.988 8.988 0 0 0 542.7 30.051 A 9.546 9.546 0 0 0 539.391 27.885 A 9.194 9.194 0 0 0 536.1 27.301 A 8.357 8.357 0 0 0 529.947 29.844 A 10.255 10.255 0 0 0 529.7 30.101 A 9.561 9.561 0 0 0 527.295 35.067 A 13.442 13.442 0 0 0 527.1 37.401 A 12.86 12.86 0 0 0 527.625 41.151 A 10.491 10.491 0 0 0 529.7 44.951 A 8.995 8.995 0 0 0 532.181 47.022 A 7.956 7.956 0 0 0 536.1 48.001 Z M 53.4 6.701 Q 53.4 3.901 55.3 1.951 A 6.285 6.285 0 0 1 57.95 0.286 A 6.514 6.514 0 0 1 59.9 0.001 A 6.621 6.621 0 0 1 62.926 0.688 A 6.709 6.709 0 0 1 64.65 1.951 A 6.454 6.454 0 0 1 66.6 6.613 A 7.986 7.986 0 0 1 66.6 6.701 A 6.172 6.172 0 0 1 64.741 11.211 A 7.586 7.586 0 0 1 64.65 11.301 Q 62.7 13.201 59.9 13.201 Q 57.2 13.201 55.3 11.301 A 6.257 6.257 0 0 1 53.401 6.785 A 7.619 7.619 0 0 1 53.4 6.701 Z M 387.4 33.801 L 403.7 33.801 Q 403.7 32.001 402.85 30.801 Q 402 29.601 400.75 28.851 Q 399.5 28.101 398.05 27.801 A 16.603 16.603 0 0 0 396.93 27.606 Q 396.372 27.53 395.877 27.509 A 8.733 8.733 0 0 0 395.5 27.501 A 11.094 11.094 0 0 0 394.087 27.595 A 14.486 14.486 0 0 0 392.9 27.801 Q 391.5 28.101 390.3 28.851 Q 389.1 29.601 388.25 30.801 A 4.499 4.499 0 0 0 387.525 32.51 A 6.354 6.354 0 0 0 387.4 33.801 Z" vector-effect="non-scaling-stroke"/></g></svg>